# xmcd CD database file
#
# Track frame offsets:
#	150
#	15967
#	30917
#	42240
#	62052
#	92817
#	103640
#	119707
#	135865
#	149255
#	163642
#	183845
#	197300
#
# Disc length: 3134 seconds
#
# Revision: 2
# Processed by: cddbd v1.5.2PL0 Copyright (c) Steve Scherf et al.
# Submitted via: CDex 1.51
#
DISCID=9d0c3c0d
DTITLE=Keith Secola - Circle
DYEAR=1992
DGENRE=Native American
TTITLE0=NDN KARS
TTITLE1=So Many Dreams
TTITLE2=Akina
TTITLE3=Life (Yes)
TTITLE4=I Scare Myself
TTITLE5=W/out Heart
TTITLE6=Plane Anxiety
TTITLE7=Noize
TTITLE8=Crimson Parsons
TTITLE9=Zogipoon
TTITLE10=ND Waza Bat
TTITLE11=Angel Wings
TTITLE12=Wassnondae
EXTD=YEAR: 1992
EXTT0=
EXTT1=
EXTT2=
EXTT3=
EXTT4=
EXTT5=
EXTT6=
EXTT7=
EXTT8=
EXTT9=
EXTT10=
EXTT11=
EXTT12=
PLAYORDER=
